<?xml version="1.0" encoding="UTF-8"?> <svg xmlns="http://www.w3.org/2000/svg" xmlns:xlink="http://www.w3.org/1999/xlink" version="1.1" id="Layer_2_00000062897259621656088610000006311654888959722679_" x="0px" y="0px" viewBox="0 0 304.7 65.7" style="enable-background:new 0 0 304.7 65.7;" xml:space="preserve"> <style type="text/css"> .st0{fill:#7A262A;} .st1{fill:#DD2B10;} .st2{fill:#482B15;} </style> <g id="Layer_1-2"> <g id="mpls_icon"> <polygon class="st0" points="38.7,13.3 30.6,13.3 30.6,13.3 30.6,13.3 30.6,28.8 38.7,28.8 38.7,22.5 49.8,32.9 38.7,43.3 38.7,36.9 30.6,36.9 30.6,52.4 30.6,52.4 30.6,52.4 53,52.4 53,32.9 53,13.3 "></polygon> <polygon class="st1" points="0,9.8 0,11.9 0,28.8 0,36.9 0,53.5 0,55.7 0,56 22.4,65.7 22.4,48.3 22.4,48.2 22.4,36.9 8.1,36.9 8.1,28.8 22.4,28.8 22.4,17.5 22.4,0 "></polygon> </g> <g id="melapress_login_security"> <rect x="79.2" y="32.3" class="st2" width="6.1" height="25.6"></rect> <path class="st2" d="M102.5,39.7c-1.4-0.8-3.2-1.2-5.2-1.2s-3.8,0.4-5.2,1.2s-2.6,2-3.3,3.5s-1.2,3.2-1.2,5.2s0.4,3.7,1.2,5.2 s1.9,2.7,3.3,3.5s3.2,1.2,5.2,1.2s3.8-0.4,5.2-1.2s2.6-2,3.3-3.5s1.2-3.2,1.2-5.2s-0.4-3.7-1.2-5.2S103.9,40.5,102.5,39.7z M100.4,51.1c-0.3,0.8-0.7,1.4-1.2,1.9s-1.1,0.7-1.9,0.7s-1.4-0.2-1.9-0.7s-0.9-1.1-1.2-1.9s-0.4-1.7-0.4-2.8s0.1-2,0.4-2.8 s0.7-1.4,1.2-1.9s1.2-0.7,1.9-0.7s1.4,0.2,1.9,0.7s0.9,1.1,1.2,1.9s0.4,1.7,0.4,2.8S100.6,50.3,100.4,51.1z"></path> <path class="st2" d="M121.9,42h-0.2c-0.2-0.6-0.6-1.2-1.1-1.7s-1.1-1-1.8-1.3s-1.6-0.5-2.6-0.5c-1.3,0-2.6,0.3-3.8,1 s-2.1,1.8-2.8,3.2s-1.1,3.3-1.1,5.5s0.3,4,1.1,5.3c0.7,1.4,1.6,2.4,2.8,3.1s2.4,1,3.8,1c0.9,0,1.8-0.1,2.5-0.4s1.3-0.6,1.8-1.1 s0.9-1,1.1-1.6h0.2v3.4c0,1.2-0.3,2.1-1,2.6s-1.5,0.8-2.6,0.8c-0.7,0-1.2-0.1-1.7-0.2s-0.9-0.4-1.2-0.7s-0.5-0.6-0.6-1l-5.8,0.3 c0.2,1.1,0.6,2.1,1.3,3s1.8,1.6,3.1,2.1s2.9,0.8,4.7,0.8c1.9,0,3.6-0.3,5.1-0.9s2.6-1.4,3.4-2.5s1.2-2.5,1.2-4.1V38.7h-6.1 C121.9,38.7,121.9,42,121.9,42z M121.6,50.9c-0.3,0.7-0.7,1.3-1.2,1.7s-1.2,0.6-1.9,0.6s-1.4-0.2-1.9-0.6s-0.9-1-1.2-1.7 s-0.4-1.6-0.4-2.6s0.1-1.9,0.4-2.7s0.7-1.3,1.2-1.8s1.2-0.6,1.9-0.6s1.4,0.2,1.9,0.6s0.9,1,1.2,1.8s0.4,1.7,0.4,2.7 S121.9,50.2,121.6,50.9L121.6,50.9z"></path> <path class="st1" d="M134.1,30.6c-0.9,0-1.6,0.3-2.2,0.9c-0.6,0.6-0.9,1.3-0.9,2.1s0.3,1.5,0.9,2.1s1.4,0.9,2.2,0.9 s1.6-0.3,2.2-0.9s0.9-1.3,0.9-2.1s-0.3-1.5-0.9-2.1S134.9,30.6,134.1,30.6z"></path> <rect x="131" y="38.7" class="st2" width="6.1" height="19.2"></rect> <path class="st2" d="M155.5,39.3c-1-0.6-2.2-0.9-3.5-0.9c-1.4,0-2.6,0.3-3.7,1s-1.8,1.6-2.2,2.8h-0.2v-3.5h-5.8v19.2h6.1v-11 c0-0.7,0.1-1.4,0.4-1.9s0.6-0.9,1.1-1.2s1.1-0.4,1.7-0.4c1,0,1.7,0.3,2.3,0.9s0.8,1.4,0.8,2.5v11.1h6.1V45.6 c0-1.4-0.3-2.7-0.8-3.8C157.3,40.8,156.5,39.9,155.5,39.3L155.5,39.3z"></path> <path class="st2" d="M179.9,46.5l-3.7-0.7c-0.8-0.2-1.4-0.4-1.7-0.7s-0.5-0.6-0.5-1c0-0.5,0.2-0.9,0.7-1.2s1.1-0.4,1.8-0.4 c0.5,0,1,0.1,1.4,0.3s0.8,0.4,1,0.7s0.4,0.7,0.5,1.1l5.6-0.2c-0.2-1.9-1-3.4-2.5-4.5s-3.6-1.6-6.2-1.6c-1.7,0-3.2,0.2-4.5,0.7 s-2.3,1.2-3,2.1s-1,2-1,3.3c0,1.5,0.5,2.7,1.4,3.6s2.4,1.6,4.3,2l3.4,0.6c0.8,0.2,1.4,0.4,1.8,0.6s0.6,0.6,0.6,1 c0,0.5-0.3,0.9-0.8,1.2s-1.1,0.4-1.9,0.4c-0.9,0-1.6-0.2-2.1-0.5s-0.9-0.9-1-1.6l-6.1,0.2c0.2,1.9,1.1,3.4,2.7,4.5 s3.8,1.7,6.5,1.7c1.7,0,3.2-0.3,4.6-0.8c1.3-0.5,2.4-1.3,3.2-2.3s1.2-2.1,1.2-3.4c0-1.4-0.5-2.5-1.4-3.4S181.8,46.9,179.9,46.5 L179.9,46.5z"></path> <path class="st2" d="M203.2,41c-0.8-0.8-1.8-1.5-2.9-1.9s-2.4-0.6-3.8-0.6c-1.9,0-3.6,0.4-5.1,1.2s-2.5,2-3.3,3.5 c-0.8,1.5-1.2,3.2-1.2,5.2s0.4,3.8,1.2,5.3s1.9,2.6,3.4,3.4s3.2,1.2,5.2,1.2c1.7,0,3.2-0.3,4.4-0.8c1.3-0.5,2.3-1.2,3.1-2.2 s1.3-2,1.5-3.3l-5.6-0.2c-0.2,0.4-0.4,0.8-0.7,1.1s-0.7,0.5-1.1,0.7s-0.9,0.2-1.5,0.2c-0.8,0-1.5-0.2-2-0.5s-1-0.8-1.3-1.4 s-0.5-1.3-0.5-2.1v-0.2h12.8v-1.5c0-1.6-0.2-3-0.7-4.2S204,41.8,203.2,41L203.2,41z M193,46.2c0-0.6,0.2-1.2,0.5-1.7 c0.3-0.5,0.8-0.9,1.3-1.2s1.2-0.5,1.8-0.5s1.3,0.1,1.8,0.4s0.9,0.7,1.2,1.2s0.5,1.1,0.5,1.7C200.1,46.2,193,46.2,193,46.2z"></path> <path class="st2" d="M215.3,43.7c0.5-0.4,1.2-0.6,1.9-0.6c0.9,0,1.6,0.3,2.1,0.8s0.9,1.3,1,2.3h5.7c0-1.6-0.4-3-1.2-4.1 s-1.8-2.1-3.1-2.7s-2.9-1-4.6-1c-2,0-3.7,0.4-5.2,1.2s-2.6,2-3.3,3.5s-1.2,3.2-1.2,5.2s0.4,3.7,1.2,5.2c0.8,1.5,1.9,2.7,3.3,3.5 s3.2,1.2,5.2,1.2c1.8,0,3.4-0.3,4.7-1s2.3-1.6,3.1-2.8c0.7-1.2,1.1-2.6,1.2-4.2h-5.7c-0.1,0.7-0.3,1.2-0.5,1.7s-0.6,0.8-1.1,1.1 s-0.9,0.4-1.5,0.4c-0.7,0-1.3-0.2-1.9-0.6s-0.9-1-1.2-1.8s-0.4-1.7-0.4-2.9s0.1-2.1,0.4-2.9S214.8,44.1,215.3,43.7L215.3,43.7z"></path> <path class="st2" d="M240.7,49.6c0,0.7-0.1,1.4-0.4,1.9s-0.7,0.9-1.2,1.2s-1,0.4-1.6,0.4c-0.9,0-1.7-0.3-2.2-0.9s-0.8-1.4-0.8-2.5 V38.7h-6.1v12.3c0,1.5,0.3,2.7,0.8,3.8c0.6,1.1,1.3,1.9,2.3,2.5s2.1,0.9,3.5,0.9c1.4,0,2.7-0.3,3.7-1s1.8-1.6,2.2-2.8h0.2v3.6h5.8 V38.7h-6.1L240.7,49.6L240.7,49.6z"></path> <path class="st2" d="M260.4,38.4c-1,0-2,0.3-2.8,0.9s-1.4,1.6-1.7,2.8h-0.2v-3.5h-5.9v19.2h6.1V47.5c0-0.8,0.2-1.4,0.5-2 s0.8-1,1.4-1.3s1.2-0.5,2-0.5c0.4,0,0.8,0,1.3,0.1s0.9,0.1,1.1,0.2v-5.3c-0.3-0.1-0.5-0.1-0.8-0.2S260.7,38.4,260.4,38.4 L260.4,38.4z"></path> <rect x="263.8" y="38.7" class="st2" width="6.1" height="19.2"></rect> <path class="st2" d="M266.8,30.6c-0.9,0-1.6,0.3-2.2,0.9c-0.6,0.6-0.9,1.3-0.9,2.1s0.3,1.5,0.9,2.1s1.4,0.9,2.2,0.9 s1.6-0.3,2.2-0.9s0.9-1.3,0.9-2.1s-0.3-1.5-0.9-2.1S267.7,30.6,266.8,30.6z"></path> <path class="st2" d="M282.6,53.3c-0.3,0-0.5,0.1-0.8,0.1c-0.3,0-0.6,0-0.8-0.1s-0.4-0.3-0.5-0.5s-0.2-0.5-0.2-0.9v-8.7h3.5v-4.5 h-3.5v-4.6h-6.1v4.6h-2.5v4.5h2.5v9.3c0,1.3,0.2,2.4,0.8,3.2s1.3,1.5,2.3,1.9s2.2,0.6,3.7,0.5c0.7,0,1.4-0.1,1.9-0.2 s0.9-0.2,1.2-0.3l-0.9-4.4C283.1,53.2,282.9,53.3,282.6,53.3L282.6,53.3z"></path> <path class="st2" d="M298.2,38.7l-3.6,13.7h-0.2l-3.5-13.7h-6.4l6.8,19.9l-0.2,0.6c-0.2,0.5-0.5,0.8-0.8,1s-0.8,0.3-1.3,0.2 s-1-0.2-1.6-0.3l-1.4,4.5c0.5,0.2,1,0.3,1.7,0.4s1.3,0.2,2.1,0.2c1.5,0,2.7-0.2,3.7-0.7s1.8-1.1,2.5-1.9s1.1-1.7,1.5-2.8l7.2-21.1 H298.2L298.2,38.7z"></path> </g> <path class="st2" d="M85.3,14.5c0-0.6,0.1-1.2,0.3-1.6s0.6-0.8,1-1.1s0.9-0.4,1.4-0.4c0.8,0,1.4,0.3,1.9,0.8s0.7,1.2,0.7,2.1v11.6 h5.9V14.4c0-0.9,0.2-1.6,0.7-2.2s1.1-0.8,2-0.8c0.8,0,1.4,0.2,1.9,0.8s0.7,1.2,0.7,2.2v11.6h6.1V12.9c0-2-0.6-3.6-1.7-4.8 s-2.6-1.8-4.4-1.8c-1.4,0-2.7,0.3-3.7,1s-1.8,1.6-2.1,2.8h-0.2c-0.3-1.1-0.9-2.1-1.8-2.8s-2.1-1-3.4-1s-2.4,0.3-3.4,1 s-1.6,1.6-2,2.8H85V6.6h-5.8v19.2h6.1L85.3,14.5L85.3,14.5z"></path> <path class="st2" d="M120,26.2c1.7,0,3.2-0.3,4.4-0.8s2.3-1.2,3.1-2.2s1.3-2,1.5-3.3l-5.6-0.2c-0.2,0.4-0.4,0.8-0.7,1.1 s-0.7,0.5-1.1,0.7s-0.9,0.2-1.5,0.2c-0.8,0-1.5-0.2-2-0.5s-1-0.8-1.3-1.4s-0.5-1.3-0.5-2.1v-0.2h12.8v-1.5c0-1.6-0.2-3-0.7-4.2 s-1.1-2.2-1.9-3.1s-1.8-1.5-2.9-1.9s-2.4-0.6-3.8-0.6c-1.9,0-3.6,0.4-5.1,1.2s-2.5,2-3.3,3.5c-0.8,1.5-1.2,3.2-1.2,5.2 s0.4,3.8,1.2,5.3s1.9,2.6,3.4,3.4S117.9,26.2,120,26.2L120,26.2z M118.1,11.2c0.5-0.3,1.2-0.5,1.8-0.5s1.3,0.1,1.8,0.4 s0.9,0.7,1.2,1.2s0.5,1.1,0.5,1.7h-7.1c0-0.6,0.2-1.2,0.5-1.7C117.1,12,117.5,11.5,118.1,11.2z"></path> <rect x="131.4" y="0.2" class="st2" width="6.1" height="25.6"></rect> <path class="st2" d="M145.9,26.2c0.9,0,1.7-0.1,2.4-0.3s1.3-0.6,1.9-1s1-1,1.3-1.6h0.1v2.7h5.8V12.8c0-1-0.2-1.9-0.6-2.7 s-1-1.5-1.8-2s-1.7-1-2.7-1.2s-2.2-0.4-3.4-0.4c-1.7,0-3.2,0.3-4.4,0.8s-2.2,1.3-2.9,2.2s-1.1,2-1.3,3.1l5.6,0.2 c0.1-0.6,0.4-1.1,0.9-1.4s1.1-0.5,1.9-0.5c0.8,0,1.4,0.2,1.8,0.5s0.7,0.9,0.7,1.5v0.1c0,0.4-0.1,0.7-0.5,0.9s-0.8,0.4-1.5,0.5 s-1.6,0.2-2.6,0.3c-1,0.1-1.9,0.2-2.8,0.5s-1.6,0.6-2.3,1s-1.2,1.1-1.6,1.8s-0.6,1.6-0.6,2.7c0,1.3,0.3,2.3,0.8,3.2 s1.3,1.5,2.2,1.9S144.7,26.2,145.9,26.2L145.9,26.2z M145.7,19.1c0.2-0.3,0.5-0.5,0.9-0.8s0.9-0.3,1.5-0.4c0.3,0,0.6-0.1,0.9-0.1 s0.6-0.1,0.9-0.2s0.6-0.1,0.8-0.2s0.5-0.2,0.6-0.2V19c0,0.6-0.2,1.2-0.5,1.6s-0.7,0.8-1.3,1.1s-1.1,0.4-1.8,0.4 c-0.7,0-1.3-0.2-1.7-0.5s-0.7-0.8-0.7-1.5C145.4,19.8,145.5,19.4,145.7,19.1L145.7,19.1z"></path> <path class="st2" d="M166.4,22.7h0.1c0.3,0.6,0.6,1.1,1.1,1.7s1.1,0.9,1.8,1.2s1.6,0.5,2.5,0.5c1.4,0,2.7-0.4,3.9-1.1 s2.1-1.8,2.8-3.3s1-3.3,1-5.5s-0.4-4.1-1.1-5.6c-0.7-1.5-1.7-2.5-2.8-3.2s-2.4-1.1-3.8-1.1c-1,0-1.9,0.2-2.6,0.5s-1.3,0.8-1.8,1.3 s-0.8,1.1-1.1,1.7h-0.2V6.6h-6.1v26.5h6.1L166.4,22.7L166.4,22.7z M166.7,13.5c0.3-0.8,0.7-1.3,1.2-1.8s1.2-0.6,1.9-0.6 s1.4,0.2,1.9,0.6s0.9,1,1.2,1.8s0.4,1.7,0.4,2.7s-0.1,1.9-0.4,2.7s-0.7,1.4-1.2,1.8s-1.2,0.6-1.9,0.6s-1.4-0.2-1.9-0.6 s-0.9-1-1.2-1.8s-0.4-1.7-0.4-2.7S166.4,14.3,166.7,13.5L166.7,13.5z"></path> <path class="st2" d="M188.1,15.4c0-0.8,0.2-1.4,0.5-2s0.8-1,1.4-1.3s1.2-0.5,2-0.5c0.4,0,0.8,0,1.3,0.1s0.9,0.1,1.1,0.2V6.6 c-0.3-0.1-0.5-0.1-0.8-0.2s-0.6-0.1-0.9-0.1c-1.1,0-2,0.3-2.8,0.9s-1.4,1.6-1.7,2.8h-0.2V6.6h-5.9v19.2h6.1L188.1,15.4L188.1,15.4z "></path> <path class="st2" d="M195.3,21.6c0.8,1.5,1.9,2.6,3.4,3.4s3.2,1.2,5.2,1.2c1.7,0,3.2-0.3,4.4-0.8s2.3-1.2,3.1-2.2s1.3-2,1.5-3.3 l-5.6-0.2c-0.2,0.4-0.4,0.8-0.7,1.1s-0.7,0.5-1.1,0.7s-0.9,0.2-1.5,0.2c-0.8,0-1.5-0.2-2-0.5s-1-0.8-1.3-1.4s-0.5-1.3-0.5-2.1v-0.2 H213v-1.5c0-1.6-0.2-3-0.7-4.2s-1.1-2.2-1.9-3.1s-1.8-1.5-2.9-1.9s-2.4-0.6-3.8-0.6c-1.9,0-3.6,0.4-5.1,1.2s-2.5,2-3.3,3.5 c-0.8,1.5-1.2,3.2-1.2,5.2S194.5,20.1,195.3,21.6L195.3,21.6z M202,11.2c0.5-0.3,1.2-0.5,1.8-0.5s1.3,0.1,1.8,0.4s0.9,0.7,1.2,1.2 s0.5,1.1,0.5,1.7h-7.1c0-0.6,0.2-1.2,0.5-1.7C201,12,201.5,11.6,202,11.2z"></path> <path class="st2" d="M231.4,23.1c0.8-1,1.2-2.1,1.2-3.4c0-1.4-0.5-2.5-1.4-3.4s-2.4-1.5-4.3-1.8l-3.7-0.7c-0.8-0.2-1.4-0.4-1.7-0.7 s-0.5-0.6-0.5-1c0-0.5,0.2-0.9,0.7-1.1s1.1-0.4,1.8-0.4c0.5,0,1,0.1,1.4,0.3s0.8,0.4,1,0.7s0.4,0.7,0.5,1.1l5.6-0.1 c-0.2-1.9-1-3.4-2.5-4.5s-3.6-1.6-6.2-1.6c-1.7,0-3.2,0.2-4.5,0.7s-2.3,1.2-3,2.1s-1,2-1,3.3c0,1.5,0.5,2.7,1.4,3.6 c0.9,1,2.4,1.6,4.3,2l3.4,0.6c0.8,0.1,1.4,0.4,1.8,0.6s0.6,0.6,0.6,1c0,0.5-0.3,0.9-0.8,1.2s-1.1,0.4-1.9,0.4 c-0.9,0-1.6-0.2-2.1-0.5s-0.9-0.9-1-1.6l-6.1,0.1c0.2,1.9,1.1,3.4,2.7,4.5s3.8,1.7,6.5,1.7c1.7,0,3.2-0.3,4.6-0.8 S230.6,24.1,231.4,23.1L231.4,23.1z"></path> <path class="st2" d="M247.6,25.4c1.3-0.5,2.4-1.3,3.2-2.3s1.2-2.1,1.2-3.4c0-1.4-0.5-2.5-1.4-3.4s-2.4-1.5-4.3-1.8l-3.7-0.7 c-0.8-0.2-1.4-0.4-1.7-0.7s-0.5-0.6-0.5-1c0-0.5,0.2-0.9,0.7-1.1s1.1-0.4,1.8-0.4c0.5,0,1,0.1,1.4,0.3s0.8,0.4,1,0.7 s0.4,0.7,0.5,1.1l5.6-0.1c-0.2-1.9-1-3.4-2.5-4.5s-3.6-1.6-6.2-1.6c-1.7,0-3.2,0.2-4.5,0.7s-2.3,1.2-3,2.1s-1,2-1,3.3 c0,1.5,0.5,2.7,1.4,3.6s2.4,1.6,4.3,2l3.4,0.6c0.8,0.1,1.4,0.4,1.8,0.6s0.6,0.6,0.6,1c0,0.5-0.3,0.9-0.8,1.2S243.8,22,243,22 c-0.9,0-1.6-0.2-2.1-0.5s-0.9-0.9-1-1.6l-6.1,0.1c0.2,1.9,1.1,3.4,2.7,4.5s3.8,1.7,6.5,1.7C244.7,26.2,246.3,26,247.6,25.4 L247.6,25.4z"></path> </g> </svg> 